<?xml version="1.0" encoding="UTF-8"?>
<!DOCTYPE svg PUBLIC "-//W3C//DTD SVG 1.1//EN" "http://www.w3.org/Graphics/SVG/1.1/DTD/svg11.dtd">
<svg xmlns="http://www.w3.org/2000/svg" version="1.1" width="89px" height="99px" style="shape-rendering:geometricPrecision; text-rendering:geometricPrecision; image-rendering:optimizeQuality; fill-rule:evenodd; clip-rule:evenodd" xmlns:xlink="http://www.w3.org/1999/xlink">
<g><path style="opacity:1" fill="#ebf2fc" d="M -0.5,-0.5 C 29.1667,-0.5 58.8333,-0.5 88.5,-0.5C 88.5,32.5 88.5,65.5 88.5,98.5C 58.8333,98.5 29.1667,98.5 -0.5,98.5C -0.5,65.5 -0.5,32.5 -0.5,-0.5 Z"/></g>
<g><path style="opacity:1" fill="#861a1d" d="M 23.5,28.5 C 26.5458,27.0133 29.8791,26.0133 33.5,25.5C 31.8058,23.156 29.4725,22.156 26.5,22.5C 24.0772,22.5943 21.7438,23.0943 19.5,24C 20.0302,25.2562 20.0302,26.7562 19.5,28.5C 19.9569,29.2975 20.6236,29.6309 21.5,29.5C 19.5879,31.9904 17.2545,33.9904 14.5,35.5C 14.5111,33.4534 14.8444,31.4534 15.5,29.5C 15.2528,28.2867 14.5862,27.62 13.5,27.5C 17.7251,21.8496 23.3918,19.6829 30.5,21C 32.9757,22.3088 34.9757,24.1421 36.5,26.5C 32.2829,27.912 27.9495,28.5787 23.5,28.5 Z"/></g>
<g><path style="opacity:1" fill="#9b0404" d="M 23.5,28.5 C 23.1583,29.3382 22.4916,29.6716 21.5,29.5C 20.6236,29.6309 19.9569,29.2975 19.5,28.5C 20.0302,26.7562 20.0302,25.2562 19.5,24C 21.7438,23.0943 24.0772,22.5943 26.5,22.5C 29.4725,22.156 31.8058,23.156 33.5,25.5C 29.8791,26.0133 26.5458,27.0133 23.5,28.5 Z"/></g>
<g><path style="opacity:1" fill="#5088db" d="M 71.5,55.5 C 71.1667,55.5 70.8333,55.5 70.5,55.5C 70.5,50.5 70.5,45.5 70.5,40.5C 70.5,35.5 70.5,30.5 70.5,25.5C 66.8183,25.3347 63.1516,25.5014 59.5,26C 56.9361,27.3961 54.2695,28.5627 51.5,29.5C 53.4101,27.4383 55.7435,25.9383 58.5,25C 62.8206,24.501 67.1539,24.3343 71.5,24.5C 71.5,34.8333 71.5,45.1667 71.5,55.5 Z"/></g>
<g><path style="opacity:1" fill="#a91617" d="M 13.5,27.5 C 14.5862,27.62 15.2528,28.2867 15.5,29.5C 14.8444,31.4534 14.5111,33.4534 14.5,35.5C 13.343,37.1376 12.1764,38.8043 11,40.5C 10.1301,39.8921 9.63008,39.0588 9.5,38C 10.4113,34.8549 11.2446,31.6883 12,28.5C 12.3826,27.944 12.8826,27.6107 13.5,27.5 Z"/></g>
<g><path style="opacity:1" fill="#317ef2" d="M 70.5,40.5 C 65.6778,39.9347 61.1778,40.6013 57,42.5C 53.4041,43.0415 49.9041,42.3748 46.5,40.5C 45.5084,40.6716 44.8417,40.3382 44.5,39.5C 45.8367,35.5015 48.1701,32.1682 51.5,29.5C 54.2695,28.5627 56.9361,27.3961 59.5,26C 63.1516,25.5014 66.8183,25.3347 70.5,25.5C 70.5,30.5 70.5,35.5 70.5,40.5 Z"/></g>
<g><path style="opacity:1" fill="#2a0279" d="M 44.5,39.5 C 44.8417,40.3382 45.5084,40.6716 46.5,40.5C 54.4639,45.486 62.4639,50.486 70.5,55.5C 70.8333,55.5 71.1667,55.5 71.5,55.5C 68.4052,75.7611 56.7386,84.2611 36.5,81C 26.8747,76.8837 21.208,69.717 19.5,59.5C 19.2143,53.7414 19.5476,48.0748 20.5,42.5C 25.6532,39.8533 31.1532,37.8533 37,36.5C 39.6827,37.093 42.1827,38.093 44.5,39.5 Z"/></g>
<g><path style="opacity:1" fill="#316bdf" d="M 46.5,40.5 C 49.9041,42.3748 53.4041,43.0415 57,42.5C 61.1778,40.6013 65.6778,39.9347 70.5,40.5C 70.5,45.5 70.5,50.5 70.5,55.5C 62.4639,50.486 54.4639,45.486 46.5,40.5 Z"/></g>
<g><path style="opacity:1" fill="#8577af" d="M 20.5,42.5 C 19.5476,48.0748 19.2143,53.7414 19.5,59.5C 18.8356,56.8541 18.5022,54.0208 18.5,51C 18.5191,47.7485 19.1858,44.9151 20.5,42.5 Z"/></g>
</svg>
