<svg width="152" height="40" viewBox="0 0 152 40" fill="none" xmlns="http://www.w3.org/2000/svg">
<path fill-rule="evenodd" clip-rule="evenodd" d="M35.3756 0.457397V23.2474H22.9276C21.3228 20.9417 20.3926 18.2012 20.3926 15.261C20.3926 7.42459 27.001 1.00665 35.3756 0.457397Z" fill="#2F88FC"/>
<path fill-rule="evenodd" clip-rule="evenodd" d="M35.3754 5.50787V23.2473H23.9842C22.5158 21.4525 21.6646 19.3194 21.6646 17.0309C21.6646 10.931 27.7119 5.93539 35.3754 5.50787Z" fill="#2F7BEF"/>
<path fill-rule="evenodd" clip-rule="evenodd" d="M35.3754 10.8793V23.6008H24.8061C23.4436 22.3137 22.6538 20.784 22.6538 19.1428C22.6538 14.7684 28.2648 11.1858 35.3754 10.8793Z" fill="#2A017B"/>
<path d="M34.3646 22.0222C35.0053 22.405 35.4092 23.0897 35.3471 23.8334C34.6541 32.1301 26.9223 39.5914 18.1217 39.5914C8.89664 39.5914 1.56347 32.6861 1.10603 23.6685C0.658764 14.8514 0.817725 9.79056 0.990172 5.1965C0.997967 4.98886 1.03424 4.78268 1.11222 4.59009C1.36105 3.9755 1.66926 3.52952 2.14614 3.23848C2.55224 2.99064 3.05658 3.06079 3.48646 3.26462C11.4594 7.04489 27.3976 17.8604 34.3646 22.0222Z" fill="#2F6FE3"/>
<path d="M72.8134 8.41759H66.3737V24.2052C66.3737 29.2738 64.3795 31.7666 60.4741 31.7666C58.3552 31.7666 56.7349 31.1019 55.6132 29.6893C54.4499 28.2767 53.9098 26.4071 53.9098 24.039V8.41759H47.4701V24.7868C47.4701 28.9415 48.7165 32.1405 51.2093 34.384C53.7021 36.6691 56.7765 37.7908 60.4741 37.7908C61.7205 37.7908 62.9669 37.6662 64.1302 37.3754C65.2935 37.0845 66.3737 36.586 67.4539 35.9212C68.5341 35.2565 69.4481 34.4671 70.2375 33.47C70.9853 32.5144 71.6085 31.3096 72.1071 29.8555C72.5641 28.4429 72.8134 26.8226 72.8134 25.0361V8.41759ZM76.9566 37.5H82.9808V7.1712H76.9566V37.5ZM85.0728 21.5047H89.1858V30.3125C89.1858 32.7637 89.8506 34.6333 91.2632 35.8797C92.6342 37.1261 94.5038 37.7493 96.8304 37.7493C99.5724 37.7493 101.857 36.8353 103.602 35.0072L101.11 30.728C99.9048 31.6835 98.6584 32.1405 97.412 32.1405C96.5811 32.1405 96.041 31.8912 95.7086 31.3096C95.3762 30.7695 95.2101 29.8555 95.2101 28.526V21.5047H101.816V15.8959H95.2101V10.8688H89.1858V15.8959H85.0728V21.5047ZM105.276 37.5H111.3V23.5404C111.716 22.0448 112.547 21.2969 113.835 21.2969C114.832 21.2969 115.455 21.5878 115.787 22.1694L118.862 17.35C118.322 16.6853 117.74 16.2283 117.159 15.9375C116.535 15.6466 115.704 15.4805 114.624 15.4805C113.959 15.4805 113.295 15.6466 112.63 15.8959C111.965 16.1452 111.55 16.436 111.3 16.7684V15.8959H105.276V37.5ZM122.265 23.125C123.387 22.3356 124.384 21.7955 125.215 21.5047C126.046 21.2138 127.085 21.0477 128.248 21.0477C129.411 21.0477 130.325 21.2969 130.907 21.7955C131.488 22.2941 131.738 23.0419 131.738 24.1221C130.741 23.7897 129.411 23.582 127.832 23.582C125.007 23.582 122.681 24.2052 120.811 25.3685C118.941 26.5733 118.027 28.3598 118.027 30.6864C118.027 32.8468 118.734 34.5502 120.188 35.8381C121.6 37.1261 123.512 37.7493 125.921 37.7493C127.168 37.7493 128.289 37.5415 129.37 37.0845C130.45 36.6691 131.239 36.129 131.738 35.5473V37.5H137.762V24.4129C137.762 21.5878 136.973 19.3858 135.435 17.8071C133.857 16.2283 131.696 15.4389 128.913 15.4389C124.675 15.4389 121.517 16.5607 119.398 18.7626L122.265 23.125ZM127.168 32.556C126.254 32.556 125.506 32.3898 125.007 32.0574C124.509 31.7251 124.259 31.2681 124.259 30.6864C124.259 29.2738 125.63 28.5675 128.456 28.5675C129.66 28.5675 130.741 28.7753 131.738 29.1076V30.1048C131.364 30.811 130.741 31.3927 129.91 31.8497C129.079 32.3483 128.165 32.556 127.168 32.556Z" fill="#FFFFFF"/>
<path d="M141.594 34.1347C141.594 35.1319 141.926 35.9628 142.674 36.6691C143.422 37.4169 144.336 37.7493 145.499 37.7493C146.538 37.7493 147.452 37.4169 148.199 36.6691C148.947 35.9212 149.321 35.0903 149.321 34.1347C149.321 33.2623 148.947 32.4729 148.199 31.7251C147.452 30.9772 146.538 30.6033 145.499 30.6033C144.336 30.6033 143.422 30.9772 142.674 31.6835C141.926 32.4314 141.594 33.2207 141.594 34.1347Z" fill="#2F6FE3"/>
</svg>
